<?xml version="1.0" standalone="no"?><!DOCTYPE svg PUBLIC "-//W3C//DTD SVG 1.1//EN" "http://www.w3.org/Graphics/SVG/1.1/DTD/svg11.dtd"><svg t="1540879499252" class="icon" style="" viewBox="0 0 1024 1024" version="1.1" xmlns="http://www.w3.org/2000/svg" p-id="2044" xmlns:xlink="http://www.w3.org/1999/xlink" width="16" height="16"><defs><style type="text/css"></style></defs><path d="M385.403167 134.618979c-109.021814 2.6646-197.690621 91.333407-200.383568 200.355221-0.963791 40.025689 12.699369 74.80722 40.649319 103.46584s62.391319 43.172185 102.417008 43.172185h163.079172c22.507364 0 40.876093-18.36873 40.876093-40.904441V277.656959c0-40.025689-14.513564-74.467058-43.172184-102.417008s-63.440151-41.61311-103.46584-40.620972z" fill="" p-id="2045"></path><path d="M728.342819 134.618979c109.021814 2.6646 197.690621 91.333407 200.383568 200.355221 0.963791 40.025689-12.699369 74.80722-40.649319 103.46584s-62.391319 43.172185-102.417008 43.172185h-163.079172c-22.507364 0-40.876093-18.36873-40.876093-40.904441V277.656959c0-40.025689 14.513564-74.467058 43.172184-102.417008s63.440151-41.61311 103.46584-40.620972z" fill="" p-id="2046"></path><path d="M928.726387 672.783081c-2.692947 109.021814-91.361754 197.690621-200.383568 200.383567-40.025689 0.963791-74.80722-12.699369-103.46584-40.649319s-43.172185-62.391319-43.172184-102.417008v-163.079172c0-22.507364 18.36873-40.876093 40.876093-40.876093h163.079172c40.025689 0 74.467058 14.513564 102.417008 43.172185s41.61311 63.440151 40.649319 103.46584z" fill="" p-id="2047"></path><path d="M385.403167 873.166648c-109.021814-2.692947-197.690621-91.361754-200.383568-200.383567-0.963791-40.025689 12.699369-74.80722 40.649319-103.46584s62.391319-43.172185 102.417008-43.172185h163.079172c22.507364 0 40.876093 18.36873 40.876093 40.876093v163.079172c0 40.025689-14.513564 74.467058-43.172184 102.417008s-63.440151 41.61311-103.46584 40.649319z" fill="#707070" p-id="2048"></path></svg>